<svg width="19" height="11" viewBox="0 0 19 11" fill="none" xmlns="http://www.w3.org/2000/svg">
<path d="M13.6624 0.442749C10.9041 0.442749 8.66243 2.68442 8.66243 5.44275C8.66243 8.20108 10.9041 10.4427 13.6624 10.4427C16.4208 10.4427 18.6624 8.20108 18.6624 5.44275C18.6624 2.68442 16.4208 0.442749 13.6624 0.442749ZM3.66243 2.10942C1.82077 2.10942 0.329102 3.60108 0.329102 5.44275C0.329102 7.28442 1.82077 8.77608 3.66243 8.77608C5.5041 8.77608 6.99577 7.28442 6.99577 5.44275C6.99577 3.60108 5.5041 2.10942 3.66243 2.10942ZM3.66243 7.10942C2.74577 7.10942 1.99577 6.35942 1.99577 5.44275C1.99577 4.52608 2.74577 3.77608 3.66243 3.77608C4.5791 3.77608 5.3291 4.52608 5.3291 5.44275C5.3291 6.35942 4.5791 7.10942 3.66243 7.10942Z" fill="#808080"/>
</svg>
