<svg width="21" height="20" viewBox="0 0 21 20" fill="none" xmlns="http://www.w3.org/2000/svg">
<path d="M14.6644 5.00002C11.9061 5.00002 9.66439 7.24168 9.66439 10C9.66439 12.7583 11.9061 15 14.6644 15C17.4227 15 19.6644 12.7583 19.6644 10C19.6644 7.24168 17.4227 5.00002 14.6644 5.00002ZM4.66439 6.66668C2.82272 6.66668 1.33105 8.15835 1.33105 10C1.33105 11.8417 2.82272 13.3333 4.66439 13.3333C6.50605 13.3333 7.99772 11.8417 7.99772 10C7.99772 8.15835 6.50605 6.66668 4.66439 6.66668ZM4.66439 11.6667C3.74772 11.6667 2.99772 10.9167 2.99772 10C2.99772 9.08335 3.74772 8.33335 4.66439 8.33335C5.58105 8.33335 6.33105 9.08335 6.33105 10C6.33105 10.9167 5.58105 11.6667 4.66439 11.6667Z" fill="#F55B5D"/>
</svg>
