<svg width="15" height="15" viewBox="0 0 15 15" fill="none" xmlns="http://www.w3.org/2000/svg">
<path d="M1.48925 9.55513C1.16113 9.88325 0.976556 10.3284 0.976556 10.7927V12.0366L0.101562 13.5678L0.976556 14.4428L2.50779 13.5678H3.75165C4.21567 13.5678 4.66083 13.3835 4.98895 13.0554L8.45174 9.59313L4.95176 6.09316L1.48925 9.55513ZM13.3326 1.21179C12.308 0.186403 10.6452 0.186403 9.62067 1.21179L7.51276 3.3197L7.15456 2.9615C6.89643 2.70338 6.48054 2.70693 6.22652 2.9615L5.10625 4.08177C4.85004 4.33798 4.85004 4.7536 5.10625 5.00981L9.53427 9.43782C9.79239 9.69594 10.2083 9.69239 10.4623 9.43782L11.5826 8.31783C11.8388 8.06162 11.8388 7.646 11.5826 7.38979L11.2244 7.03159L13.3323 4.92367C14.3579 3.89884 14.3579 2.2369 13.3326 1.21179Z" fill="#808080"/>
</svg>
