<svg width="21" height="20" viewBox="0 0 15 14" fill="none" xmlns="http://www.w3.org/2000/svg">
<path d="M1.4912 9.11238C1.16308 9.4405 0.978509 9.88565 0.978509 10.3499V11.5938L0.103516 13.125L0.978509 14L2.50975 13.125H3.75361C4.21763 13.125 4.66278 12.9407 4.9909 12.6126L8.45369 9.15038L4.95371 5.65041L1.4912 9.11238ZM13.3345 0.769037C12.3099 -0.256346 10.6472 -0.256346 9.62263 0.769037L7.51471 2.87695L7.15651 2.51875C6.89839 2.26063 6.48249 2.26418 6.22847 2.51875L5.10821 3.63902C4.852 3.89523 4.852 4.31085 5.10821 4.56706L9.53622 8.99507C9.79434 9.25319 10.2102 9.24964 10.4643 8.99507L11.5845 7.87508C11.8407 7.61887 11.8407 7.20325 11.5845 6.94704L11.2263 6.58884L13.3342 4.48092C14.3599 3.45609 14.3599 1.79415 13.3345 0.769037Z" fill="#FFAC32"/>
</svg>
