<svg width="21" height="20" viewBox="0 0 21 20" fill="none" xmlns="http://www.w3.org/2000/svg">
<path d="M12.9997 10.8334V4.16669C12.9997 2.78335 11.883 1.66669 10.4997 1.66669C9.11634 1.66669 7.99967 2.78335 7.99967 4.16669V10.8334C6.99134 11.5917 6.33301 12.8084 6.33301 14.1667C6.33301 16.4667 8.19967 18.3334 10.4997 18.3334C12.7997 18.3334 14.6663 16.4667 14.6663 14.1667C14.6663 12.8084 14.008 11.5917 12.9997 10.8334ZM9.66634 4.16669C9.66634 3.70835 10.0413 3.33335 10.4997 3.33335C10.958 3.33335 11.333 3.70835 11.333 4.16669H10.4997V5.00002H11.333V6.66669H10.4997V7.50002H11.333V9.16669H9.66634V4.16669Z" fill="#FFAC32"/>
</svg>
