<svg width="9" height="17" viewBox="0 0 9 17" fill="none" xmlns="http://www.w3.org/2000/svg">
<path d="M6.99772 9.2761V2.60944C6.99772 1.2261 5.88105 0.109436 4.49772 0.109436C3.11439 0.109436 1.99772 1.2261 1.99772 2.60944V9.2761C0.989388 10.0344 0.331055 11.2511 0.331055 12.6094C0.331055 14.9094 2.19772 16.7761 4.49772 16.7761C6.79772 16.7761 8.66439 14.9094 8.66439 12.6094C8.66439 11.2511 8.00605 10.0344 6.99772 9.2761ZM3.66439 2.60944C3.66439 2.1511 4.03939 1.7761 4.49772 1.7761C4.95605 1.7761 5.33105 2.1511 5.33105 2.60944H4.49772V3.44277H5.33105V5.10944H4.49772V5.94277H5.33105V7.60944H3.66439V2.60944Z" fill="#808080"/>
</svg>
